<?xml version="1.0" encoding="UTF-8"?>
<!DOCTYPE svg PUBLIC "-//W3C//DTD SVG 1.1//EN" "http://www.w3.org/Graphics/SVG/1.1/DTD/svg11.dtd">
<!-- Creator: CorelDRAW -->
<svg xmlns="http://www.w3.org/2000/svg" xml:space="preserve" width="51mm" height="51mm" style="shape-rendering:geometricPrecision; text-rendering:geometricPrecision; image-rendering:optimizeQuality; fill-rule:evenodd; clip-rule:evenodd"
viewBox="0 0 51 51"
 xmlns:xlink="http://www.w3.org/1999/xlink">
 <defs>
  <style type="text/css">
   <![CDATA[
    .str0 {stroke:#BFBFBF;stroke-width:0.25}
    .fil2 {fill:none;fill-rule:nonzero}
    .fil1 {fill:#495660;fill-rule:nonzero}
    .fil0 {fill:white;fill-rule:nonzero}
   ]]>
  </style>
 </defs>
 <g id="Слой_x0020_1">
  <metadata id="CorelCorpID_0Corel-Layer"/>
  <g id="_65382464">
   <polygon id="_67095928" class="fil0" points="19.2105,16.023 19.2105,17.173 24.6247,17.173 24.6247,22.5872 25.7746,22.5872 25.7746,17.173 31.1888,17.173 31.1888,16.023 25.7746,16.023 25.7746,10.6089 24.6247,10.6089 24.6247,16.023 "/>
   <polygon id="_670959281" class="fil0" points="6.1016,31.6692 7.3027,31.6692 7.3027,32.7488 7.539,32.7488 7.539,30.5129 7.3027,30.5129 7.3027,31.4679 6.1016,31.4679 6.1016,30.5129 5.8653,30.5129 5.8653,32.7488 6.1016,32.7488 "/>
   <path id="_6709592812" class="fil0" d="M8.3376 32.1068l0.9742 0 0.2364 0.642 0.2587 0 -0.8496 -2.2359 -0.2652 0 -0.8496 2.2359 0.2555 0 0.2396 -0.642zm0.0671 -0.2013l0.4184 -1.1659 0.4184 1.1659 -0.8368 0z"/>
   <polygon id="_67095928123" class="fil0" points="11.107,32.7488 11.3433,32.7488 11.3433,31.6085 12.3463,32.7488 12.6338,32.7488 11.5765,31.551 12.6018,30.5129 12.3208,30.5129 11.3433,31.519 11.3433,30.5129 11.107,30.5129 11.107,31.519 10.1327,30.5129 9.8516,30.5129 10.877,31.551 9.8165,32.7488 10.1072,32.7488 11.107,31.6085 "/>
   <polygon id="_670959281234" class="fil0" points="13.9338,32.7488 14.1383,32.7488 14.9049,30.8067 14.9145,30.8067 14.9081,30.893 14.9081,32.7488 15.1444,32.7488 15.1444,30.5129 14.7899,30.5129 14.0361,32.439 13.2854,30.5129 12.9277,30.5129 12.9277,32.7488 13.164,32.7488 13.164,30.893 13.1576,30.8067 13.164,30.8067 "/>
   <polygon id="_6709592812345" class="fil0" points="15.9685,32.4102 15.9685,30.5129 15.7322,30.5129 15.7322,32.7488 15.9749,32.7488 17.243,30.8419 17.243,32.7488 17.4794,32.7488 17.4794,30.5129 17.2366,30.5129 "/>
   <polygon id="_67095928123456" class="fil0" points="18.5335,30.7141 18.5335,32.7488 18.7699,32.7488 18.7699,30.7141 19.5109,30.7141 19.5109,30.5129 17.7925,30.5129 17.7925,30.7141 "/>
   <polygon id="_670959281234567" class="fil0" points="20.0603,31.4903 20.0603,30.7141 21.3668,30.7141 21.3668,30.5129 19.824,30.5129 19.824,32.7488 21.4051,32.7488 21.4051,32.5476 20.0603,32.5476 20.0603,31.6915 21.255,31.6915 21.255,31.4903 "/>
   <path id="_6709592812345678" class="fil0" d="M24.1521 32.5476l0 -2.0347 -1.2713 0 0 0.4471c0,0.0618 -0.0016,0.1283 -0.0048,0.1997 -0.0032,0.0719 -0.008,0.1453 -0.0154,0.2209 -0.0075,0.0761 -0.0171,0.1517 -0.0298,0.2273 -0.0123,0.0751 -0.0277,0.148 -0.0458,0.2178 -0.0133,0.0506 -0.0336,0.1128 -0.0607,0.1874 -0.0272,0.074 -0.0644,0.1565 -0.1118,0.247 -0.0474,0.091 -0.1081,0.1868 -0.1821,0.2875l-0.2044 0 0.0224 0.7059 0.2108 0 0 -0.5047 1.7823 0 0 0.5047 0.2077 0 0.0255 -0.7059 -0.3226 0zm-0.2364 -1.8335l0 1.8335 -1.2202 0c0.048,-0.066 0.0911,-0.1363 0.1305,-0.2109 0.0394,-0.074 0.0756,-0.157 0.1091,-0.2491 0.0261,-0.0697 0.0517,-0.1544 0.0761,-0.2539 0.0251,-0.0996 0.0453,-0.2183 0.0618,-0.3557 0.016,-0.1373 0.0245,-0.297 0.025,-0.4796l0 -0.2843 0.8177 0z"/>
   <path id="_67095928123456789" class="fil0" d="M24.5162 32.7488c0.0176,0.0016 0.0346,0.0032 0.0506,0.0043 0.0165,0.0016 0.0324,0.0021 0.0484,0.0021 0.0751,0 0.1432,-0.0123 0.2044,-0.0362 0.0613,-0.024 0.1166,-0.0596 0.1661,-0.1076 0.0517,-0.0521 0.0943,-0.1102 0.1268,-0.1751 0.033,-0.0655 0.059,-0.132 0.0777,-0.2012 0.0186,-0.0687 0.0325,-0.1353 0.0415,-0.1986 0.0048,-0.0288 0.0101,-0.0713 0.0165,-0.1288 0.0064,-0.0575 0.0122,-0.1299 0.017,-0.2183 0.0054,-0.0884 0.0075,-0.1927 0.008,-0.3141l0 -0.6612 0.8561 0 0 2.0347 0.2363 0 0 -2.2359 -1.3096 0 0 0.8336c0,0.0453 -0.001,0.0969 -0.0026,0.1544 -0.0022,0.057 -0.0048,0.1161 -0.008,0.1768 -0.0038,0.0601 -0.0075,0.1176 -0.0123,0.1725 -0.0048,0.0543 -0.0096,0.1016 -0.0154,0.1416 -0.0144,0.0995 -0.033,0.1804 -0.0554,0.2427 -0.0223,0.0629 -0.0452,0.1113 -0.0692,0.1459 -0.0239,0.0346 -0.0452,0.0591 -0.0639,0.0745 -0.041,0.0373 -0.0883,0.0634 -0.1432,0.0788 -0.0548,0.016 -0.1112,0.0181 -0.1698,0.0075l0 0.2076z"/>
   <path id="_6709592812345678910" class="fil0" d="M28.3237 31.8289l0 0.9199 0.2363 0 0 -2.2359 -0.9071 0c-0.0623,-0.0011 -0.1278,0.0026 -0.1954,0.0111 -0.0681,0.008 -0.1357,0.0256 -0.2023,0.0522 -0.0665,0.0266 -0.1288,0.0671 -0.1868,0.1219 -0.0325,0.0309 -0.0618,0.0682 -0.0889,0.1124 -0.0272,0.0447 -0.0485,0.0963 -0.065,0.1559 -0.016,0.0597 -0.0245,0.1278 -0.025,0.2045 0.0005,0.0724 0.0085,0.1378 0.0239,0.1959 0.016,0.058 0.0368,0.1091 0.0629,0.1533 0.0255,0.0442 0.0543,0.0809 0.0857,0.1107 0.0335,0.032 0.0729,0.0607 0.1187,0.0852 0.0452,0.025 0.0942,0.0453 0.1459,0.0607 0.0521,0.0154 0.1043,0.0256 0.157,0.0298l-0.5941 0.9423 0.2843 0 0.5558 -0.9199 0.5941 0zm0 -1.1148l0 0.9135 -0.6293 0c-0.0804,-0.0005 -0.1501,-0.0069 -0.2092,-0.0191 -0.0586,-0.0128 -0.1081,-0.0298 -0.148,-0.0511 -0.0399,-0.0208 -0.0719,-0.0442 -0.0964,-0.0703 -0.034,-0.0373 -0.0601,-0.0841 -0.0793,-0.1395 -0.0191,-0.0554 -0.0287,-0.1155 -0.0293,-0.1799 0,-0.0432 0.0054,-0.0852 0.0155,-0.1262 0.0101,-0.041 0.025,-0.0788 0.0447,-0.1145 0.0192,-0.0351 0.0431,-0.066 0.0708,-0.0915 0.0405,-0.0368 0.0847,-0.0639 0.1331,-0.0815 0.0484,-0.017 0.0964,-0.0282 0.1427,-0.0335 0.0463,-0.0048 0.0862,-0.0069 0.1203,-0.0064l0.6644 0z"/>
   <path id="_670959281234567891011" class="fil0" d="M29.7674 32.0844c0.0032,0.0666 0.0138,0.1304 0.0319,0.1917 0.0176,0.0617 0.0416,0.1192 0.0714,0.1724 0.0298,0.0527 0.0649,0.0996 0.1043,0.1406 0.0474,0.0484 0.099,0.0878 0.1555,0.1176 0.0559,0.0299 0.1139,0.0527 0.1735,0.0687 0.0596,0.016 0.1193,0.0266 0.1784,0.0325 0.0596,0.0058 0.116,0.0085 0.1698,0.008 0.0506,0.0005 0.1054,-0.0022 0.1629,-0.0075 0.058,-0.0048 0.1171,-0.0143 0.1767,-0.0287 0.0597,-0.0139 0.1172,-0.0341 0.1725,-0.0607 0.0554,-0.0266 0.1065,-0.0618 0.1523,-0.1044 0.0378,-0.0351 0.0713,-0.0771 0.1011,-0.1267 0.0298,-0.0489 0.0533,-0.1048 0.0703,-0.1671 0.0176,-0.0628 0.0261,-0.132 0.0266,-0.2076 0.0006,-0.0448 -0.0042,-0.0905 -0.0133,-0.1369 -0.0096,-0.0468 -0.025,-0.0921 -0.0479,-0.1373 -0.0224,-0.0447 -0.0527,-0.0879 -0.0921,-0.1283 -0.0213,-0.0229 -0.0474,-0.0447 -0.0777,-0.066 -0.0309,-0.0213 -0.0666,-0.04 -0.107,-0.0554 -0.041,-0.0154 -0.0868,-0.0261 -0.1379,-0.0319l0 -0.0064c0.049,-0.0112 0.091,-0.0261 0.1267,-0.0447 0.0357,-0.0192 0.0644,-0.0373 0.0862,-0.0554 0.0219,-0.0176 0.0373,-0.0314 0.0458,-0.0405 0.0346,-0.0378 0.0612,-0.0772 0.0793,-0.1182 0.0181,-0.0409 0.0298,-0.0819 0.0362,-0.1224 0.0064,-0.0405 0.0096,-0.0783 0.0091,-0.1139 0.0005,-0.0421 -0.0032,-0.0868 -0.0117,-0.1347 -0.0085,-0.0485 -0.025,-0.0969 -0.0495,-0.1459 -0.0251,-0.049 -0.0607,-0.0958 -0.1081,-0.1411 -0.0442,-0.0415 -0.0921,-0.0745 -0.1443,-0.0995 -0.0516,-0.025 -0.1049,-0.0442 -0.1597,-0.057 -0.0543,-0.0128 -0.1075,-0.0213 -0.1602,-0.0261 -0.0522,-0.0042 -0.1006,-0.0064 -0.1459,-0.0058 -0.0442,-0.0006 -0.0932,0.0016 -0.1464,0.0058 -0.0532,0.0043 -0.1081,0.0128 -0.165,0.0267 -0.057,0.0133 -0.1124,0.0335 -0.1672,0.0606 -0.0548,0.0267 -0.1065,0.0629 -0.1538,0.1081 -0.0128,0.0117 -0.0288,0.0304 -0.0496,0.0554 -0.0202,0.0245 -0.041,0.0559 -0.0622,0.0937 -0.0213,0.0383 -0.04,0.0825 -0.0554,0.1336 -0.0154,0.0516 -0.0245,0.1091 -0.0277,0.1741l0.2364 0c0.0037,-0.0575 0.0149,-0.1091 0.033,-0.1549 0.0181,-0.0463 0.0399,-0.0857 0.066,-0.1193 0.0261,-0.0335 0.0527,-0.0601 0.0799,-0.0804 0.0356,-0.0266 0.0755,-0.0473 0.1208,-0.0623 0.0447,-0.0149 0.091,-0.025 0.1395,-0.0314 0.0484,-0.0058 0.0958,-0.009 0.1421,-0.0085 0.0336,-0.0005 0.0719,0.0016 0.115,0.0064 0.0426,0.0043 0.0868,0.0133 0.1326,0.0266 0.0452,0.0133 0.0883,0.033 0.1293,0.0596 0.0591,0.04 0.1028,0.0879 0.1305,0.1443 0.0282,0.0559 0.0426,0.1209 0.042,0.1943 -0.0005,0.049 -0.0058,0.0916 -0.017,0.1278 -0.0107,0.0357 -0.0245,0.0665 -0.0415,0.0916 -0.0171,0.0255 -0.0346,0.0458 -0.0533,0.0617 -0.0293,0.0256 -0.0623,0.0453 -0.0985,0.0596 -0.0367,0.0144 -0.0729,0.0251 -0.1096,0.0315 -0.0362,0.0063 -0.0687,0.0106 -0.098,0.0122 -0.0287,0.0016 -0.05,0.0021 -0.0644,0.0021l-0.2651 0 0 0.2013 0.2875 0c0.0143,0 0.0346,0.0005 0.0622,0.0016 0.0272,0.001 0.0581,0.0042 0.0927,0.0085 0.0346,0.0048 0.0692,0.0122 0.1049,0.0223 0.0351,0.0096 0.0681,0.0235 0.0979,0.041 0.0197,0.0112 0.0405,0.0267 0.0623,0.0463 0.0218,0.0197 0.0426,0.0448 0.0623,0.0751 0.0197,0.0304 0.0357,0.0666 0.0479,0.1086 0.0122,0.0421 0.0186,0.091 0.0192,0.1469 -0.0006,0.0543 -0.007,0.1028 -0.0192,0.1454 -0.0122,0.0426 -0.0288,0.0804 -0.049,0.1128 -0.0202,0.0325 -0.042,0.0602 -0.066,0.0836 -0.0463,0.0453 -0.0958,0.0794 -0.1496,0.1017 -0.0538,0.0224 -0.1086,0.0373 -0.165,0.0447 -0.0559,0.0075 -0.1108,0.0107 -0.1645,0.0101 -0.0485,0.0006 -0.1006,-0.0021 -0.1571,-0.0085 -0.0564,-0.0058 -0.1128,-0.0197 -0.1693,-0.0404 -0.0564,-0.0213 -0.1096,-0.0538 -0.1591,-0.098 -0.0474,-0.0436 -0.0863,-0.0979 -0.1172,-0.1629 -0.0308,-0.0649 -0.0479,-0.1384 -0.0521,-0.2204l-0.2364 0z"/>
   <path id="_67095928123456789101112" class="fil0" d="M32.2301 32.1068l0.9742 0 0.2364 0.642 0.2587 0 -0.8496 -2.2359 -0.2652 0 -0.8496 2.2359 0.2555 0 0.2396 -0.642zm0.0671 -0.2013l0.4184 -1.1659 0.4184 1.1659 -0.8368 0z"/>
   <polygon id="_6709592812345678910111213" class="fil0" points="34.2392,30.7141 35.4051,30.7141 35.4051,30.5129 34.0029,30.5129 34.0029,32.7488 34.2392,32.7488 "/>
   <path id="_670959281234567891011121314" class="fil0" d="M35.7182 30.5129l0 2.2359 0.2363 0 0 -0.9327 0.6261 0c0.0335,0.0005 0.0729,-0.0011 0.1193,-0.0037 0.0457,-0.0027 0.0947,-0.0096 0.1469,-0.0208 0.0527,-0.0106 0.1043,-0.0282 0.1565,-0.0522 0.0522,-0.0239 0.1006,-0.0569 0.1459,-0.099 0.0266,-0.0245 0.0537,-0.0575 0.0814,-0.1001 0.0277,-0.0431 0.0511,-0.0958 0.0703,-0.1597 0.0197,-0.0633 0.0293,-0.1384 0.0303,-0.2257 -0.0005,-0.0884 -0.0111,-0.1645 -0.0314,-0.2284 -0.0202,-0.0644 -0.0458,-0.1182 -0.0766,-0.1618 -0.0304,-0.0437 -0.0613,-0.0788 -0.0932,-0.1049 -0.0426,-0.0362 -0.0873,-0.065 -0.1336,-0.0852 -0.0469,-0.0202 -0.0937,-0.0346 -0.1416,-0.0436 -0.0474,-0.0086 -0.0937,-0.0139 -0.1395,-0.016 -0.0453,-0.0016 -0.0879,-0.0027 -0.1283,-0.0021l-0.8688 0zm0.2363 0.2012l0.5846 0c0.0463,-0.0005 0.0931,0.0011 0.1411,0.0053 0.0479,0.0037 0.0936,0.0117 0.1373,0.0245 0.0442,0.0123 0.0831,0.0309 0.1177,0.0564 0.0271,0.0203 0.0521,0.0474 0.075,0.0815 0.0234,0.0341 0.0421,0.0745 0.0565,0.1214 0.0143,0.0468 0.0212,0.0995 0.0218,0.1581 -0.0006,0.0607 -0.0075,0.1134 -0.0208,0.1592 -0.0138,0.0457 -0.0319,0.0846 -0.0538,0.1171 -0.0223,0.0319 -0.0463,0.058 -0.0724,0.0782 -0.0378,0.0293 -0.0803,0.0511 -0.1272,0.0655 -0.0463,0.0144 -0.0937,0.0234 -0.1416,0.0277 -0.0479,0.0043 -0.0926,0.0064 -0.1336,0.0059l-0.5846 0 0 -0.9008z"/>
   <path id="_67095928123456789101112131415" class="fil0" d="M38.4748 31.9375l-0.6836 -1.4246 -0.2907 0 0.8497 1.6993c-0.0085,0.0287 -0.0213,0.0612 -0.0368,0.0979 -0.0159,0.0368 -0.0335,0.0724 -0.0532,0.1065 -0.0197,0.0341 -0.0399,0.0618 -0.0601,0.0831 -0.0235,0.0218 -0.0474,0.0383 -0.0719,0.0495 -0.0245,0.0111 -0.0485,0.0186 -0.0724,0.0223 -0.024,0.0032 -0.0474,0.0048 -0.0698,0.0048 -0.0351,0 -0.0697,-0.0026 -0.1032,-0.0074 -0.0341,-0.0054 -0.0676,-0.0133 -0.1012,-0.0245l0 0.2044c0.0357,0.0112 0.0714,0.0192 0.106,0.0245 0.0346,0.0048 0.074,0.0074 0.1176,0.0074 0.0383,0.0006 0.0788,-0.0021 0.1203,-0.0079 0.0415,-0.0054 0.0831,-0.0176 0.1246,-0.0368 0.0421,-0.0186 0.083,-0.0474 0.1224,-0.0862 0.016,-0.0155 0.0336,-0.0373 0.0538,-0.065 0.0197,-0.0282 0.0415,-0.0655 0.066,-0.1128 0.0245,-0.0469 0.0517,-0.107 0.0815,-0.18l0.7251 -1.7791 -0.2524 0 -0.5717 1.4246z"/>
   <path id="_6709592812345678910111213141516" class="fil0" d="M39.4682 32.0844c0.0032,0.0666 0.0138,0.1304 0.0319,0.1917 0.0176,0.0617 0.0416,0.1192 0.0714,0.1724 0.0298,0.0527 0.0649,0.0996 0.1043,0.1406 0.0474,0.0484 0.099,0.0878 0.1555,0.1176 0.0559,0.0299 0.1139,0.0527 0.1735,0.0687 0.0596,0.016 0.1193,0.0266 0.1784,0.0325 0.0596,0.0058 0.116,0.0085 0.1698,0.008 0.0506,0.0005 0.1054,-0.0022 0.1629,-0.0075 0.058,-0.0048 0.1171,-0.0143 0.1767,-0.0287 0.0597,-0.0139 0.1172,-0.0341 0.1725,-0.0607 0.0554,-0.0266 0.1065,-0.0618 0.1523,-0.1044 0.0378,-0.0351 0.0713,-0.0771 0.1011,-0.1267 0.0298,-0.0489 0.0533,-0.1048 0.0703,-0.1671 0.0176,-0.0628 0.0261,-0.132 0.0266,-0.2076 0.0006,-0.0448 -0.0042,-0.0905 -0.0133,-0.1369 -0.0096,-0.0468 -0.025,-0.0921 -0.0479,-0.1373 -0.0224,-0.0447 -0.0527,-0.0879 -0.0921,-0.1283 -0.0213,-0.0229 -0.0474,-0.0447 -0.0777,-0.066 -0.0309,-0.0213 -0.0666,-0.04 -0.107,-0.0554 -0.041,-0.0154 -0.0868,-0.0261 -0.1379,-0.0319l0 -0.0064c0.049,-0.0112 0.091,-0.0261 0.1267,-0.0447 0.0357,-0.0192 0.0644,-0.0373 0.0862,-0.0554 0.0219,-0.0176 0.0373,-0.0314 0.0458,-0.0405 0.0346,-0.0378 0.0612,-0.0772 0.0793,-0.1182 0.0181,-0.0409 0.0298,-0.0819 0.0362,-0.1224 0.0064,-0.0405 0.0096,-0.0783 0.0091,-0.1139 0.0005,-0.0421 -0.0032,-0.0868 -0.0117,-0.1347 -0.0085,-0.0485 -0.025,-0.0969 -0.0495,-0.1459 -0.0251,-0.049 -0.0607,-0.0958 -0.1081,-0.1411 -0.0442,-0.0415 -0.0921,-0.0745 -0.1443,-0.0995 -0.0516,-0.025 -0.1049,-0.0442 -0.1597,-0.057 -0.0543,-0.0128 -0.1075,-0.0213 -0.1602,-0.0261 -0.0522,-0.0042 -0.1006,-0.0064 -0.1459,-0.0058 -0.0442,-0.0006 -0.0932,0.0016 -0.1464,0.0058 -0.0532,0.0043 -0.1081,0.0128 -0.165,0.0267 -0.057,0.0133 -0.1124,0.0335 -0.1672,0.0606 -0.0548,0.0267 -0.1065,0.0629 -0.1538,0.1081 -0.0128,0.0117 -0.0288,0.0304 -0.0496,0.0554 -0.0202,0.0245 -0.041,0.0559 -0.0622,0.0937 -0.0213,0.0383 -0.04,0.0825 -0.0554,0.1336 -0.0154,0.0516 -0.0245,0.1091 -0.0277,0.1741l0.2364 0c0.0037,-0.0575 0.0149,-0.1091 0.033,-0.1549 0.0181,-0.0463 0.0399,-0.0857 0.066,-0.1193 0.0261,-0.0335 0.0527,-0.0601 0.0799,-0.0804 0.0356,-0.0266 0.0755,-0.0473 0.1208,-0.0623 0.0447,-0.0149 0.091,-0.025 0.1395,-0.0314 0.0484,-0.0058 0.0958,-0.009 0.1421,-0.0085 0.0336,-0.0005 0.0719,0.0016 0.115,0.0064 0.0426,0.0043 0.0868,0.0133 0.1326,0.0266 0.0452,0.0133 0.0883,0.033 0.1293,0.0596 0.0591,0.04 0.1028,0.0879 0.1305,0.1443 0.0282,0.0559 0.0426,0.1209 0.042,0.1943 -0.0005,0.049 -0.0058,0.0916 -0.017,0.1278 -0.0107,0.0357 -0.0245,0.0665 -0.0415,0.0916 -0.0171,0.0255 -0.0346,0.0458 -0.0533,0.0617 -0.0293,0.0256 -0.0623,0.0453 -0.0985,0.0596 -0.0367,0.0144 -0.0729,0.0251 -0.1096,0.0315 -0.0362,0.0063 -0.0687,0.0106 -0.098,0.0122 -0.0287,0.0016 -0.05,0.0021 -0.0644,0.0021l-0.2651 0 0 0.2013 0.2875 0c0.0143,0 0.0346,0.0005 0.0622,0.0016 0.0272,0.001 0.0581,0.0042 0.0927,0.0085 0.0346,0.0048 0.0692,0.0122 0.1049,0.0223 0.0351,0.0096 0.0681,0.0235 0.0979,0.041 0.0197,0.0112 0.0405,0.0267 0.0623,0.0463 0.0218,0.0197 0.0426,0.0448 0.0623,0.0751 0.0197,0.0304 0.0357,0.0666 0.0479,0.1086 0.0122,0.0421 0.0186,0.091 0.0192,0.1469 -0.0006,0.0543 -0.007,0.1028 -0.0192,0.1454 -0.0122,0.0426 -0.0288,0.0804 -0.049,0.1128 -0.0202,0.0325 -0.042,0.0602 -0.066,0.0836 -0.0463,0.0453 -0.0958,0.0794 -0.1496,0.1017 -0.0538,0.0224 -0.1086,0.0373 -0.165,0.0447 -0.0559,0.0075 -0.1108,0.0107 -0.1645,0.0101 -0.0485,0.0006 -0.1006,-0.0021 -0.1571,-0.0085 -0.0564,-0.0058 -0.1128,-0.0197 -0.1693,-0.0404 -0.0564,-0.0213 -0.1096,-0.0538 -0.1591,-0.098 -0.0474,-0.0436 -0.0863,-0.0979 -0.1172,-0.1629 -0.0308,-0.0649 -0.0479,-0.1384 -0.0521,-0.2204l-0.2364 0z"/>
   <polygon id="_670959281234567891011121314151617" class="fil0" points="41.9564,31.5382 41.9564,30.5129 41.7201,30.5129 41.7201,32.7488 41.9564,32.7488 41.9564,31.5797 43.068,32.7488 43.3874,32.7488 42.2152,31.551 43.3236,30.5129 43.0265,30.5129 "/>
   <polygon id="_67095928123456789101112131415161718" class="fil0" points="43.9176,32.4102 43.9176,30.5129 43.6813,30.5129 43.6813,32.7488 43.924,32.7488 45.1921,30.8419 45.1921,32.7488 45.4285,32.7488 45.4285,30.5129 45.1857,30.5129 "/>
   <polygon id="_6709592812345678910111213141516171819" class="fil0" points="13.8299,38.7812 13.8299,36.8839 13.5936,36.8839 13.5936,39.1198 13.8363,39.1198 15.1044,37.2129 15.1044,39.1198 15.3408,39.1198 15.3408,36.8839 15.098,36.8839 "/>
   <path id="_670959281234567891011121314151617181920" class="fil0" d="M15.804 38.4554c0.0032,0.0666 0.0138,0.1304 0.0319,0.1917 0.0176,0.0617 0.0416,0.1192 0.0714,0.1724 0.0298,0.0527 0.0649,0.0996 0.1043,0.1406 0.0474,0.0484 0.099,0.0878 0.1555,0.1176 0.0559,0.0299 0.1139,0.0527 0.1735,0.0687 0.0596,0.016 0.1193,0.0266 0.1784,0.0325 0.0596,0.0058 0.116,0.0085 0.1698,0.008 0.0506,0.0005 0.1054,-0.0022 0.1629,-0.0075 0.058,-0.0048 0.1171,-0.0143 0.1767,-0.0287 0.0597,-0.0139 0.1172,-0.0341 0.1725,-0.0607 0.0554,-0.0266 0.1065,-0.0618 0.1523,-0.1044 0.0378,-0.0351 0.0713,-0.0771 0.1011,-0.1267 0.0298,-0.0489 0.0533,-0.1048 0.0703,-0.1671 0.0176,-0.0628 0.0261,-0.132 0.0266,-0.2076 0.0006,-0.0448 -0.0042,-0.0905 -0.0133,-0.1369 -0.0096,-0.0468 -0.025,-0.0921 -0.0479,-0.1373 -0.0224,-0.0447 -0.0527,-0.0879 -0.0921,-0.1283 -0.0213,-0.0229 -0.0474,-0.0447 -0.0777,-0.066 -0.0309,-0.0213 -0.0666,-0.04 -0.107,-0.0554 -0.041,-0.0154 -0.0868,-0.0261 -0.1379,-0.0319l0 -0.0064c0.049,-0.0112 0.091,-0.0261 0.1267,-0.0447 0.0357,-0.0192 0.0644,-0.0373 0.0862,-0.0554 0.0219,-0.0176 0.0373,-0.0314 0.0458,-0.0405 0.0346,-0.0378 0.0612,-0.0772 0.0793,-0.1182 0.0181,-0.0409 0.0298,-0.0819 0.0362,-0.1224 0.0064,-0.0405 0.0096,-0.0783 0.0091,-0.1139 0.0005,-0.0421 -0.0032,-0.0868 -0.0117,-0.1347 -0.0085,-0.0485 -0.025,-0.0969 -0.0495,-0.1459 -0.0251,-0.049 -0.0607,-0.0958 -0.1081,-0.1411 -0.0442,-0.0415 -0.0921,-0.0745 -0.1443,-0.0995 -0.0516,-0.025 -0.1049,-0.0442 -0.1597,-0.057 -0.0543,-0.0128 -0.1075,-0.0213 -0.1602,-0.0261 -0.0522,-0.0042 -0.1006,-0.0064 -0.1459,-0.0058 -0.0442,-0.0006 -0.0932,0.0016 -0.1464,0.0058 -0.0532,0.0043 -0.1081,0.0128 -0.165,0.0267 -0.057,0.0133 -0.1124,0.0335 -0.1672,0.0606 -0.0548,0.0267 -0.1065,0.0629 -0.1538,0.1081 -0.0128,0.0117 -0.0288,0.0304 -0.0496,0.0554 -0.0202,0.0245 -0.041,0.0559 -0.0622,0.0937 -0.0213,0.0383 -0.04,0.0825 -0.0554,0.1336 -0.0154,0.0516 -0.0245,0.1091 -0.0277,0.1741l0.2364 0c0.0037,-0.0575 0.0149,-0.1091 0.033,-0.1549 0.0181,-0.0463 0.0399,-0.0857 0.066,-0.1193 0.0261,-0.0335 0.0527,-0.0601 0.0799,-0.0804 0.0356,-0.0266 0.0755,-0.0473 0.1208,-0.0623 0.0447,-0.0149 0.091,-0.025 0.1395,-0.0314 0.0484,-0.0058 0.0958,-0.009 0.1421,-0.0085 0.0336,-0.0005 0.0719,0.0016 0.115,0.0064 0.0426,0.0043 0.0868,0.0133 0.1326,0.0266 0.0452,0.0133 0.0883,0.033 0.1293,0.0596 0.0591,0.04 0.1028,0.0879 0.1305,0.1443 0.0282,0.0559 0.0426,0.1209 0.042,0.1943 -0.0005,0.049 -0.0058,0.0916 -0.017,0.1278 -0.0107,0.0357 -0.0245,0.0665 -0.0415,0.0916 -0.0171,0.0255 -0.0346,0.0458 -0.0533,0.0617 -0.0293,0.0256 -0.0623,0.0453 -0.0985,0.0596 -0.0367,0.0144 -0.0729,0.0251 -0.1096,0.0315 -0.0362,0.0063 -0.0687,0.0106 -0.098,0.0122 -0.0287,0.0016 -0.05,0.0021 -0.0644,0.0021l-0.2651 0 0 0.2013 0.2875 0c0.0143,0 0.0346,0.0005 0.0622,0.0016 0.0272,0.001 0.0581,0.0042 0.0927,0.0085 0.0346,0.0048 0.0692,0.0122 0.1049,0.0223 0.0351,0.0096 0.0681,0.0235 0.0979,0.041 0.0197,0.0112 0.0405,0.0267 0.0623,0.0463 0.0218,0.0197 0.0426,0.0448 0.0623,0.0751 0.0197,0.0304 0.0357,0.0666 0.0479,0.1086 0.0122,0.0421 0.0186,0.091 0.0192,0.1469 -0.0006,0.0543 -0.007,0.1028 -0.0192,0.1454 -0.0122,0.0426 -0.0288,0.0804 -0.049,0.1128 -0.0202,0.0325 -0.042,0.0602 -0.066,0.0836 -0.0463,0.0453 -0.0958,0.0794 -0.1496,0.1017 -0.0538,0.0224 -0.1086,0.0373 -0.165,0.0447 -0.0559,0.0075 -0.1108,0.0107 -0.1645,0.0101 -0.0485,0.0006 -0.1006,-0.0021 -0.1571,-0.0085 -0.0564,-0.0058 -0.1128,-0.0197 -0.1693,-0.0404 -0.0564,-0.0213 -0.1096,-0.0538 -0.1591,-0.098 -0.0474,-0.0436 -0.0863,-0.0979 -0.1172,-0.1629 -0.0308,-0.0649 -0.0479,-0.1384 -0.0521,-0.2204l-0.2364 0z"/>
   <path id="_67095928123456789101112131415161718192021" class="fil0" d="M17.9728 38.0018c0.0005,0.1166 0.0096,0.2226 0.0277,0.3184 0.0176,0.0958 0.0421,0.1821 0.0724,0.2582 0.0309,0.0761 0.065,0.1432 0.1033,0.2007 0.0383,0.0575 0.0782,0.1059 0.1192,0.1459 0.0708,0.0686 0.1459,0.1219 0.2258,0.1602 0.0793,0.0383 0.1613,0.0649 0.2448,0.0799 0.0842,0.0149 0.1677,0.0223 0.2513,0.0218 0.0772,0.0005 0.1581,-0.0059 0.2422,-0.0192 0.0842,-0.0138 0.1677,-0.0388 0.2503,-0.0756 0.083,-0.0367 0.1618,-0.0889 0.2358,-0.1576 0.0623,-0.0575 0.1182,-0.1293 0.1677,-0.2156 0.0495,-0.0862 0.0884,-0.1879 0.1171,-0.3045 0.0288,-0.1166 0.0437,-0.2486 0.0442,-0.3966 -0.0005,-0.1411 -0.0144,-0.271 -0.041,-0.3897 -0.0271,-0.1192 -0.0655,-0.2252 -0.1145,-0.3183 -0.0495,-0.0932 -0.107,-0.1715 -0.1735,-0.2343 -0.0532,-0.0516 -0.1161,-0.0963 -0.189,-0.1352 -0.0724,-0.0389 -0.1538,-0.0687 -0.2438,-0.0905 -0.0905,-0.0218 -0.189,-0.0325 -0.2955,-0.033 -0.1182,0.001 -0.2225,0.0144 -0.3141,0.0404 -0.0915,0.0261 -0.1703,0.0597 -0.2374,0.1001 -0.0671,0.0405 -0.1225,0.0831 -0.1672,0.1278 -0.0601,0.0586 -0.115,0.1304 -0.1639,0.2172 -0.049,0.0862 -0.0879,0.1874 -0.1172,0.3034 -0.0292,0.1161 -0.0442,0.2481 -0.0447,0.3961zm0.2492 -0.0287c-0.0006,-0.0479 0.0026,-0.1038 0.0101,-0.1677 0.0069,-0.0644 0.0202,-0.132 0.0399,-0.2028 0.0202,-0.0714 0.049,-0.1411 0.0873,-0.2098 0.0383,-0.0692 0.0884,-0.132 0.1501,-0.1895 0.0703,-0.0639 0.148,-0.1108 0.2332,-0.1406 0.0852,-0.0303 0.1789,-0.0452 0.2811,-0.0447 0.0559,-0.0005 0.1134,0.0037 0.1736,0.0139 0.0596,0.0095 0.1192,0.0276 0.1783,0.0543 0.0591,0.0266 0.115,0.0644 0.1688,0.1139 0.0143,0.0128 0.0335,0.0319 0.0564,0.0585 0.0229,0.0267 0.0474,0.0607 0.0729,0.1023 0.0256,0.042 0.0501,0.0921 0.073,0.1506 0.0229,0.0586 0.042,0.1267 0.0564,0.2039 0.0144,0.0767 0.0218,0.164 0.0224,0.2609 0.0005,0.0591 -0.0027,0.1235 -0.0096,0.1938 -0.0064,0.0697 -0.0187,0.1416 -0.0373,0.2145 -0.0181,0.0735 -0.0442,0.1437 -0.0783,0.2119 -0.0346,0.0681 -0.0787,0.1299 -0.1336,0.1847 -0.034,0.0346 -0.0756,0.0676 -0.1256,0.0985 -0.0501,0.0309 -0.1086,0.0559 -0.1768,0.0756 -0.0681,0.0197 -0.1458,0.0298 -0.2342,0.0303 -0.1182,0 -0.2241,-0.0181 -0.3184,-0.0548 -0.0942,-0.0362 -0.1767,-0.0905 -0.247,-0.1624 -0.0394,-0.0378 -0.0772,-0.0894 -0.1139,-0.1559 -0.0367,-0.0661 -0.0676,-0.1512 -0.0916,-0.2556 -0.0239,-0.1043 -0.0362,-0.2321 -0.0372,-0.3838z"/>
   <path id="_6709592812345678910111213141516171819202122" class="fil0" d="M20.8156 37.0851l1.3065 0 0 -0.2012 -1.5428 0 0 2.2359 0.9486 0c0.0373,0 0.0788,-0.0011 0.1251,-0.0048 0.0458,-0.0037 0.0937,-0.0106 0.1438,-0.0218 0.0495,-0.0107 0.0985,-0.0272 0.1469,-0.049 0.0479,-0.0218 0.0927,-0.0511 0.1336,-0.0873 0.0357,-0.0319 0.0677,-0.0724 0.0964,-0.1198 0.0293,-0.0479 0.0522,-0.1022 0.0692,-0.1629 0.017,-0.0601 0.0256,-0.1262 0.0261,-0.1964 -0.0005,-0.0692 -0.008,-0.1337 -0.024,-0.1933 -0.0154,-0.0591 -0.0367,-0.1123 -0.0638,-0.1602 -0.0272,-0.0474 -0.0586,-0.0884 -0.0943,-0.1225 -0.0527,-0.0505 -0.108,-0.0878 -0.1671,-0.1128 -0.0586,-0.0251 -0.1166,-0.041 -0.1747,-0.049 -0.058,-0.008 -0.1123,-0.0112 -0.1629,-0.0107l-0.7666 0 0 -0.7442zm0 0.9423l0.674 0c0.0234,-0.0005 0.0522,0.0005 0.0857,0.0032 0.033,0.0026 0.0687,0.008 0.107,0.0159 0.0378,0.008 0.0756,0.0208 0.1129,0.0373 0.0373,0.0171 0.0719,0.0394 0.1033,0.0682 0.0239,0.0213 0.0452,0.0473 0.0644,0.0787 0.0192,0.0315 0.0346,0.0682 0.0458,0.1102 0.0117,0.0426 0.0175,0.09 0.0175,0.1433 0.0011,0.0564 -0.0079,0.1118 -0.026,0.1661 -0.0187,0.0543 -0.0512,0.1032 -0.0985,0.1469 -0.0394,0.0357 -0.0826,0.0623 -0.1278,0.0798 -0.0458,0.0176 -0.0926,0.0288 -0.14,0.0341 -0.0479,0.0053 -0.0948,0.008 -0.1411,0.0075l-0.6772 0 0 -0.8912z"/>
   <path id="_670959281234567891011121314151617181920212223" class="fil0" d="M22.7098 36.8839l0 2.2359 0.2363 0 0 -0.9327 0.6261 0c0.0335,0.0005 0.0729,-0.0011 0.1193,-0.0037 0.0457,-0.0027 0.0947,-0.0096 0.1469,-0.0208 0.0527,-0.0106 0.1043,-0.0282 0.1565,-0.0522 0.0522,-0.0239 0.1006,-0.0569 0.1459,-0.099 0.0266,-0.0245 0.0537,-0.0575 0.0814,-0.1001 0.0277,-0.0431 0.0511,-0.0958 0.0703,-0.1597 0.0197,-0.0633 0.0293,-0.1384 0.0303,-0.2257 -0.0005,-0.0884 -0.0111,-0.1645 -0.0314,-0.2284 -0.0202,-0.0644 -0.0458,-0.1182 -0.0766,-0.1618 -0.0304,-0.0437 -0.0613,-0.0788 -0.0932,-0.1049 -0.0426,-0.0362 -0.0873,-0.065 -0.1336,-0.0852 -0.0469,-0.0202 -0.0937,-0.0346 -0.1416,-0.0436 -0.0474,-0.0086 -0.0937,-0.0139 -0.1395,-0.016 -0.0453,-0.0016 -0.0879,-0.0027 -0.1283,-0.0021l-0.8688 0zm0.2363 0.2012l0.5846 0c0.0463,-0.0005 0.0931,0.0011 0.1411,0.0053 0.0479,0.0037 0.0936,0.0117 0.1373,0.0245 0.0442,0.0123 0.0831,0.0309 0.1177,0.0564 0.0271,0.0203 0.0521,0.0474 0.075,0.0815 0.0234,0.0341 0.0421,0.0745 0.0565,0.1214 0.0143,0.0468 0.0212,0.0995 0.0218,0.1581 -0.0006,0.0607 -0.0075,0.1134 -0.0208,0.1592 -0.0138,0.0457 -0.0319,0.0846 -0.0538,0.1171 -0.0223,0.0319 -0.0463,0.058 -0.0724,0.0782 -0.0378,0.0293 -0.0803,0.0511 -0.1272,0.0655 -0.0463,0.0144 -0.0937,0.0234 -0.1416,0.0277 -0.0479,0.0043 -0.0926,0.0064 -0.1336,0.0059l-0.5846 0 0 -0.9008z"/>
   <path id="_67095928123456789101112131415161718192021222324" class="fil0" d="M24.9553 38.4778l0.9742 0 0.2364 0.642 0.2587 0 -0.8496 -2.2359 -0.2652 0 -0.8496 2.2359 0.2555 0 0.2396 -0.642zm0.0671 -0.2013l0.4184 -1.1659 0.4184 1.1659 -0.8368 0z"/>
   <polygon id="_6709592812345678910111213141516171819202122232425" class="fil0" points="27.7247,39.1198 27.961,39.1198 27.961,37.9795 28.964,39.1198 29.2515,39.1198 28.1942,37.922 29.2195,36.8839 28.9385,36.8839 27.961,37.89 27.961,36.8839 27.7247,36.8839 27.7247,37.89 26.7504,36.8839 26.4693,36.8839 27.4947,37.922 26.4342,39.1198 26.7249,39.1198 27.7247,37.9795 "/>
   <polygon id="_670959281234567891011121314151617181920212223242526" class="fil0" points="29.7817,37.8613 29.7817,37.0851 31.0882,37.0851 31.0882,36.8839 29.5454,36.8839 29.5454,39.1198 31.1265,39.1198 31.1265,38.9186 29.7817,38.9186 29.7817,38.0625 30.9764,38.0625 30.9764,37.8613 "/>
   <polygon id="_67095928123456789101112131415161718192021222324252627" class="fil0" points="31.7334,38.0402 32.9345,38.0402 32.9345,39.1198 33.1708,39.1198 33.1708,36.8839 32.9345,36.8839 32.9345,37.8389 31.7334,37.8389 31.7334,36.8839 31.4971,36.8839 31.4971,39.1198 31.7334,39.1198 "/>
   <polygon id="_6709592812345678910111213141516171819202122232425262728" class="fil0" points="33.9949,38.7812 33.9949,36.8839 33.7586,36.8839 33.7586,39.1198 34.0013,39.1198 35.2694,37.2129 35.2694,39.1198 35.5058,39.1198 35.5058,36.8839 35.263,36.8839 "/>
   <path id="_670959281234567891011121314151617181920212223242526272829" class="fil0" d="M37.4639 38.1999l0 0.9199 0.2363 0 0 -2.2359 -0.9071 0c-0.0623,-0.0011 -0.1278,0.0026 -0.1954,0.0111 -0.0681,0.008 -0.1357,0.0256 -0.2023,0.0522 -0.0665,0.0266 -0.1288,0.0671 -0.1868,0.1219 -0.0325,0.0309 -0.0618,0.0682 -0.0889,0.1124 -0.0272,0.0447 -0.0485,0.0963 -0.065,0.1559 -0.016,0.0597 -0.0245,0.1278 -0.025,0.2045 0.0005,0.0724 0.0085,0.1378 0.0239,0.1959 0.016,0.058 0.0368,0.1091 0.0629,0.1533 0.0255,0.0442 0.0543,0.0809 0.0857,0.1107 0.0335,0.032 0.0729,0.0607 0.1187,0.0852 0.0452,0.025 0.0942,0.0453 0.1459,0.0607 0.0521,0.0154 0.1043,0.0256 0.157,0.0298l-0.5941 0.9423 0.2843 0 0.5558 -0.9199 0.5941 0zm0 -1.1148l0 0.9135 -0.6293 0c-0.0804,-0.0005 -0.1501,-0.0069 -0.2092,-0.0191 -0.0586,-0.0128 -0.1081,-0.0298 -0.148,-0.0511 -0.0399,-0.0208 -0.0719,-0.0442 -0.0964,-0.0703 -0.034,-0.0373 -0.0601,-0.0841 -0.0793,-0.1395 -0.0191,-0.0554 -0.0287,-0.1155 -0.0293,-0.1799 0,-0.0432 0.0054,-0.0852 0.0155,-0.1262 0.0101,-0.041 0.025,-0.0788 0.0447,-0.1145 0.0192,-0.0351 0.0431,-0.066 0.0708,-0.0915 0.0405,-0.0368 0.0847,-0.0639 0.1331,-0.0815 0.0484,-0.017 0.0964,-0.0282 0.1427,-0.0335 0.0463,-0.0048 0.0862,-0.0069 0.1203,-0.0064l0.6644 0z"/>
   <circle id="_65382584" class="fil0 str0" cx="25.4999" cy="25.4999" r="25"/>
  </g>
  <g id="_65382464_0">
   <polygon id="_67095928_1" class="fil1" points="19.2105,16.023 19.2105,17.173 24.6247,17.173 24.6247,22.5872 25.7746,22.5872 25.7746,17.173 31.1888,17.173 31.1888,16.023 25.7746,16.023 25.7746,10.6089 24.6247,10.6089 24.6247,16.023 "/>
   <polygon id="_670959281_2" class="fil1" points="6.1016,31.6692 7.3027,31.6692 7.3027,32.7488 7.539,32.7488 7.539,30.5129 7.3027,30.5129 7.3027,31.4679 6.1016,31.4679 6.1016,30.5129 5.8653,30.5129 5.8653,32.7488 6.1016,32.7488 "/>
   <path id="_6709592812_3" class="fil1" d="M8.3376 32.1068l0.9742 0 0.2364 0.642 0.2587 0 -0.8496 -2.2359 -0.2652 0 -0.8496 2.2359 0.2555 0 0.2396 -0.642zm0.0671 -0.2013l0.4184 -1.1659 0.4184 1.1659 -0.8368 0z"/>
   <polygon id="_67095928123_4" class="fil1" points="11.107,32.7488 11.3433,32.7488 11.3433,31.6085 12.3463,32.7488 12.6338,32.7488 11.5765,31.551 12.6018,30.5129 12.3208,30.5129 11.3433,31.519 11.3433,30.5129 11.107,30.5129 11.107,31.519 10.1327,30.5129 9.8516,30.5129 10.877,31.551 9.8165,32.7488 10.1072,32.7488 11.107,31.6085 "/>
   <polygon id="_670959281234_5" class="fil1" points="13.9338,32.7488 14.1383,32.7488 14.9049,30.8067 14.9145,30.8067 14.9081,30.893 14.9081,32.7488 15.1444,32.7488 15.1444,30.5129 14.7899,30.5129 14.0361,32.439 13.2854,30.5129 12.9277,30.5129 12.9277,32.7488 13.164,32.7488 13.164,30.893 13.1576,30.8067 13.164,30.8067 "/>
   <polygon id="_6709592812345_6" class="fil1" points="15.9685,32.4102 15.9685,30.5129 15.7322,30.5129 15.7322,32.7488 15.9749,32.7488 17.243,30.8419 17.243,32.7488 17.4794,32.7488 17.4794,30.5129 17.2366,30.5129 "/>
   <polygon id="_67095928123456_7" class="fil1" points="18.5335,30.7141 18.5335,32.7488 18.7699,32.7488 18.7699,30.7141 19.5109,30.7141 19.5109,30.5129 17.7925,30.5129 17.7925,30.7141 "/>
   <polygon id="_670959281234567_8" class="fil1" points="20.0603,31.4903 20.0603,30.7141 21.3668,30.7141 21.3668,30.5129 19.824,30.5129 19.824,32.7488 21.4051,32.7488 21.4051,32.5476 20.0603,32.5476 20.0603,31.6915 21.255,31.6915 21.255,31.4903 "/>
   <path id="_6709592812345678_9" class="fil1" d="M24.1521 32.5476l0 -2.0347 -1.2713 0 0 0.4471c0,0.0618 -0.0016,0.1283 -0.0048,0.1997 -0.0032,0.0719 -0.008,0.1453 -0.0154,0.2209 -0.0075,0.0761 -0.0171,0.1517 -0.0298,0.2273 -0.0123,0.0751 -0.0277,0.148 -0.0458,0.2178 -0.0133,0.0506 -0.0336,0.1128 -0.0607,0.1874 -0.0272,0.074 -0.0644,0.1565 -0.1118,0.247 -0.0474,0.091 -0.1081,0.1868 -0.1821,0.2875l-0.2044 0 0.0224 0.7059 0.2108 0 0 -0.5047 1.7823 0 0 0.5047 0.2077 0 0.0255 -0.7059 -0.3226 0zm-0.2364 -1.8335l0 1.8335 -1.2202 0c0.048,-0.066 0.0911,-0.1363 0.1305,-0.2109 0.0394,-0.074 0.0756,-0.157 0.1091,-0.2491 0.0261,-0.0697 0.0517,-0.1544 0.0761,-0.2539 0.0251,-0.0996 0.0453,-0.2183 0.0618,-0.3557 0.016,-0.1373 0.0245,-0.297 0.025,-0.4796l0 -0.2843 0.8177 0z"/>
   <path id="_67095928123456789_10" class="fil1" d="M24.5162 32.7488c0.0176,0.0016 0.0346,0.0032 0.0506,0.0043 0.0165,0.0016 0.0324,0.0021 0.0484,0.0021 0.0751,0 0.1432,-0.0123 0.2044,-0.0362 0.0613,-0.024 0.1166,-0.0596 0.1661,-0.1076 0.0517,-0.0521 0.0943,-0.1102 0.1268,-0.1751 0.033,-0.0655 0.059,-0.132 0.0777,-0.2012 0.0186,-0.0687 0.0325,-0.1353 0.0415,-0.1986 0.0048,-0.0288 0.0101,-0.0713 0.0165,-0.1288 0.0064,-0.0575 0.0122,-0.1299 0.017,-0.2183 0.0054,-0.0884 0.0075,-0.1927 0.008,-0.3141l0 -0.6612 0.8561 0 0 2.0347 0.2363 0 0 -2.2359 -1.3096 0 0 0.8336c0,0.0453 -0.001,0.0969 -0.0026,0.1544 -0.0022,0.057 -0.0048,0.1161 -0.008,0.1768 -0.0038,0.0601 -0.0075,0.1176 -0.0123,0.1725 -0.0048,0.0543 -0.0096,0.1016 -0.0154,0.1416 -0.0144,0.0995 -0.033,0.1804 -0.0554,0.2427 -0.0223,0.0629 -0.0452,0.1113 -0.0692,0.1459 -0.0239,0.0346 -0.0452,0.0591 -0.0639,0.0745 -0.041,0.0373 -0.0883,0.0634 -0.1432,0.0788 -0.0548,0.016 -0.1112,0.0181 -0.1698,0.0075l0 0.2076z"/>
   <path id="_6709592812345678910_11" class="fil1" d="M28.3237 31.8289l0 0.9199 0.2363 0 0 -2.2359 -0.9071 0c-0.0623,-0.0011 -0.1278,0.0026 -0.1954,0.0111 -0.0681,0.008 -0.1357,0.0256 -0.2023,0.0522 -0.0665,0.0266 -0.1288,0.0671 -0.1868,0.1219 -0.0325,0.0309 -0.0618,0.0682 -0.0889,0.1124 -0.0272,0.0447 -0.0485,0.0963 -0.065,0.1559 -0.016,0.0597 -0.0245,0.1278 -0.025,0.2045 0.0005,0.0724 0.0085,0.1378 0.0239,0.1959 0.016,0.058 0.0368,0.1091 0.0629,0.1533 0.0255,0.0442 0.0543,0.0809 0.0857,0.1107 0.0335,0.032 0.0729,0.0607 0.1187,0.0852 0.0452,0.025 0.0942,0.0453 0.1459,0.0607 0.0521,0.0154 0.1043,0.0256 0.157,0.0298l-0.5941 0.9423 0.2843 0 0.5558 -0.9199 0.5941 0zm0 -1.1148l0 0.9135 -0.6293 0c-0.0804,-0.0005 -0.1501,-0.0069 -0.2092,-0.0191 -0.0586,-0.0128 -0.1081,-0.0298 -0.148,-0.0511 -0.0399,-0.0208 -0.0719,-0.0442 -0.0964,-0.0703 -0.034,-0.0373 -0.0601,-0.0841 -0.0793,-0.1395 -0.0191,-0.0554 -0.0287,-0.1155 -0.0293,-0.1799 0,-0.0432 0.0054,-0.0852 0.0155,-0.1262 0.0101,-0.041 0.025,-0.0788 0.0447,-0.1145 0.0192,-0.0351 0.0431,-0.066 0.0708,-0.0915 0.0405,-0.0368 0.0847,-0.0639 0.1331,-0.0815 0.0484,-0.017 0.0964,-0.0282 0.1427,-0.0335 0.0463,-0.0048 0.0862,-0.0069 0.1203,-0.0064l0.6644 0z"/>
   <path id="_670959281234567891011_12" class="fil1" d="M29.7674 32.0844c0.0032,0.0666 0.0138,0.1304 0.0319,0.1917 0.0176,0.0617 0.0416,0.1192 0.0714,0.1724 0.0298,0.0527 0.0649,0.0996 0.1043,0.1406 0.0474,0.0484 0.099,0.0878 0.1555,0.1176 0.0559,0.0299 0.1139,0.0527 0.1735,0.0687 0.0596,0.016 0.1193,0.0266 0.1784,0.0325 0.0596,0.0058 0.116,0.0085 0.1698,0.008 0.0506,0.0005 0.1054,-0.0022 0.1629,-0.0075 0.058,-0.0048 0.1171,-0.0143 0.1767,-0.0287 0.0597,-0.0139 0.1172,-0.0341 0.1725,-0.0607 0.0554,-0.0266 0.1065,-0.0618 0.1523,-0.1044 0.0378,-0.0351 0.0713,-0.0771 0.1011,-0.1267 0.0298,-0.0489 0.0533,-0.1048 0.0703,-0.1671 0.0176,-0.0628 0.0261,-0.132 0.0266,-0.2076 0.0006,-0.0448 -0.0042,-0.0905 -0.0133,-0.1369 -0.0096,-0.0468 -0.025,-0.0921 -0.0479,-0.1373 -0.0224,-0.0447 -0.0527,-0.0879 -0.0921,-0.1283 -0.0213,-0.0229 -0.0474,-0.0447 -0.0777,-0.066 -0.0309,-0.0213 -0.0666,-0.04 -0.107,-0.0554 -0.041,-0.0154 -0.0868,-0.0261 -0.1379,-0.0319l0 -0.0064c0.049,-0.0112 0.091,-0.0261 0.1267,-0.0447 0.0357,-0.0192 0.0644,-0.0373 0.0862,-0.0554 0.0219,-0.0176 0.0373,-0.0314 0.0458,-0.0405 0.0346,-0.0378 0.0612,-0.0772 0.0793,-0.1182 0.0181,-0.0409 0.0298,-0.0819 0.0362,-0.1224 0.0064,-0.0405 0.0096,-0.0783 0.0091,-0.1139 0.0005,-0.0421 -0.0032,-0.0868 -0.0117,-0.1347 -0.0085,-0.0485 -0.025,-0.0969 -0.0495,-0.1459 -0.0251,-0.049 -0.0607,-0.0958 -0.1081,-0.1411 -0.0442,-0.0415 -0.0921,-0.0745 -0.1443,-0.0995 -0.0516,-0.025 -0.1049,-0.0442 -0.1597,-0.057 -0.0543,-0.0128 -0.1075,-0.0213 -0.1602,-0.0261 -0.0522,-0.0042 -0.1006,-0.0064 -0.1459,-0.0058 -0.0442,-0.0006 -0.0932,0.0016 -0.1464,0.0058 -0.0532,0.0043 -0.1081,0.0128 -0.165,0.0267 -0.057,0.0133 -0.1124,0.0335 -0.1672,0.0606 -0.0548,0.0267 -0.1065,0.0629 -0.1538,0.1081 -0.0128,0.0117 -0.0288,0.0304 -0.0496,0.0554 -0.0202,0.0245 -0.041,0.0559 -0.0622,0.0937 -0.0213,0.0383 -0.04,0.0825 -0.0554,0.1336 -0.0154,0.0516 -0.0245,0.1091 -0.0277,0.1741l0.2364 0c0.0037,-0.0575 0.0149,-0.1091 0.033,-0.1549 0.0181,-0.0463 0.0399,-0.0857 0.066,-0.1193 0.0261,-0.0335 0.0527,-0.0601 0.0799,-0.0804 0.0356,-0.0266 0.0755,-0.0473 0.1208,-0.0623 0.0447,-0.0149 0.091,-0.025 0.1395,-0.0314 0.0484,-0.0058 0.0958,-0.009 0.1421,-0.0085 0.0336,-0.0005 0.0719,0.0016 0.115,0.0064 0.0426,0.0043 0.0868,0.0133 0.1326,0.0266 0.0452,0.0133 0.0883,0.033 0.1293,0.0596 0.0591,0.04 0.1028,0.0879 0.1305,0.1443 0.0282,0.0559 0.0426,0.1209 0.042,0.1943 -0.0005,0.049 -0.0058,0.0916 -0.017,0.1278 -0.0107,0.0357 -0.0245,0.0665 -0.0415,0.0916 -0.0171,0.0255 -0.0346,0.0458 -0.0533,0.0617 -0.0293,0.0256 -0.0623,0.0453 -0.0985,0.0596 -0.0367,0.0144 -0.0729,0.0251 -0.1096,0.0315 -0.0362,0.0063 -0.0687,0.0106 -0.098,0.0122 -0.0287,0.0016 -0.05,0.0021 -0.0644,0.0021l-0.2651 0 0 0.2013 0.2875 0c0.0143,0 0.0346,0.0005 0.0622,0.0016 0.0272,0.001 0.0581,0.0042 0.0927,0.0085 0.0346,0.0048 0.0692,0.0122 0.1049,0.0223 0.0351,0.0096 0.0681,0.0235 0.0979,0.041 0.0197,0.0112 0.0405,0.0267 0.0623,0.0463 0.0218,0.0197 0.0426,0.0448 0.0623,0.0751 0.0197,0.0304 0.0357,0.0666 0.0479,0.1086 0.0122,0.0421 0.0186,0.091 0.0192,0.1469 -0.0006,0.0543 -0.007,0.1028 -0.0192,0.1454 -0.0122,0.0426 -0.0288,0.0804 -0.049,0.1128 -0.0202,0.0325 -0.042,0.0602 -0.066,0.0836 -0.0463,0.0453 -0.0958,0.0794 -0.1496,0.1017 -0.0538,0.0224 -0.1086,0.0373 -0.165,0.0447 -0.0559,0.0075 -0.1108,0.0107 -0.1645,0.0101 -0.0485,0.0006 -0.1006,-0.0021 -0.1571,-0.0085 -0.0564,-0.0058 -0.1128,-0.0197 -0.1693,-0.0404 -0.0564,-0.0213 -0.1096,-0.0538 -0.1591,-0.098 -0.0474,-0.0436 -0.0863,-0.0979 -0.1172,-0.1629 -0.0308,-0.0649 -0.0479,-0.1384 -0.0521,-0.2204l-0.2364 0z"/>
   <path id="_67095928123456789101112_13" class="fil1" d="M32.2301 32.1068l0.9742 0 0.2364 0.642 0.2587 0 -0.8496 -2.2359 -0.2652 0 -0.8496 2.2359 0.2555 0 0.2396 -0.642zm0.0671 -0.2013l0.4184 -1.1659 0.4184 1.1659 -0.8368 0z"/>
   <polygon id="_6709592812345678910111213_14" class="fil1" points="34.2392,30.7141 35.4051,30.7141 35.4051,30.5129 34.0029,30.5129 34.0029,32.7488 34.2392,32.7488 "/>
   <path id="_670959281234567891011121314_15" class="fil1" d="M35.7182 30.5129l0 2.2359 0.2363 0 0 -0.9327 0.6261 0c0.0335,0.0005 0.0729,-0.0011 0.1193,-0.0037 0.0457,-0.0027 0.0947,-0.0096 0.1469,-0.0208 0.0527,-0.0106 0.1043,-0.0282 0.1565,-0.0522 0.0522,-0.0239 0.1006,-0.0569 0.1459,-0.099 0.0266,-0.0245 0.0537,-0.0575 0.0814,-0.1001 0.0277,-0.0431 0.0511,-0.0958 0.0703,-0.1597 0.0197,-0.0633 0.0293,-0.1384 0.0303,-0.2257 -0.0005,-0.0884 -0.0111,-0.1645 -0.0314,-0.2284 -0.0202,-0.0644 -0.0458,-0.1182 -0.0766,-0.1618 -0.0304,-0.0437 -0.0613,-0.0788 -0.0932,-0.1049 -0.0426,-0.0362 -0.0873,-0.065 -0.1336,-0.0852 -0.0469,-0.0202 -0.0937,-0.0346 -0.1416,-0.0436 -0.0474,-0.0086 -0.0937,-0.0139 -0.1395,-0.016 -0.0453,-0.0016 -0.0879,-0.0027 -0.1283,-0.0021l-0.8688 0zm0.2363 0.2012l0.5846 0c0.0463,-0.0005 0.0931,0.0011 0.1411,0.0053 0.0479,0.0037 0.0936,0.0117 0.1373,0.0245 0.0442,0.0123 0.0831,0.0309 0.1177,0.0564 0.0271,0.0203 0.0521,0.0474 0.075,0.0815 0.0234,0.0341 0.0421,0.0745 0.0565,0.1214 0.0143,0.0468 0.0212,0.0995 0.0218,0.1581 -0.0006,0.0607 -0.0075,0.1134 -0.0208,0.1592 -0.0138,0.0457 -0.0319,0.0846 -0.0538,0.1171 -0.0223,0.0319 -0.0463,0.058 -0.0724,0.0782 -0.0378,0.0293 -0.0803,0.0511 -0.1272,0.0655 -0.0463,0.0144 -0.0937,0.0234 -0.1416,0.0277 -0.0479,0.0043 -0.0926,0.0064 -0.1336,0.0059l-0.5846 0 0 -0.9008z"/>
   <path id="_67095928123456789101112131415_16" class="fil1" d="M38.4748 31.9375l-0.6836 -1.4246 -0.2907 0 0.8497 1.6993c-0.0085,0.0287 -0.0213,0.0612 -0.0368,0.0979 -0.0159,0.0368 -0.0335,0.0724 -0.0532,0.1065 -0.0197,0.0341 -0.0399,0.0618 -0.0601,0.0831 -0.0235,0.0218 -0.0474,0.0383 -0.0719,0.0495 -0.0245,0.0111 -0.0485,0.0186 -0.0724,0.0223 -0.024,0.0032 -0.0474,0.0048 -0.0698,0.0048 -0.0351,0 -0.0697,-0.0026 -0.1032,-0.0074 -0.0341,-0.0054 -0.0676,-0.0133 -0.1012,-0.0245l0 0.2044c0.0357,0.0112 0.0714,0.0192 0.106,0.0245 0.0346,0.0048 0.074,0.0074 0.1176,0.0074 0.0383,0.0006 0.0788,-0.0021 0.1203,-0.0079 0.0415,-0.0054 0.0831,-0.0176 0.1246,-0.0368 0.0421,-0.0186 0.083,-0.0474 0.1224,-0.0862 0.016,-0.0155 0.0336,-0.0373 0.0538,-0.065 0.0197,-0.0282 0.0415,-0.0655 0.066,-0.1128 0.0245,-0.0469 0.0517,-0.107 0.0815,-0.18l0.7251 -1.7791 -0.2524 0 -0.5717 1.4246z"/>
   <path id="_6709592812345678910111213141516_17" class="fil1" d="M39.4682 32.0844c0.0032,0.0666 0.0138,0.1304 0.0319,0.1917 0.0176,0.0617 0.0416,0.1192 0.0714,0.1724 0.0298,0.0527 0.0649,0.0996 0.1043,0.1406 0.0474,0.0484 0.099,0.0878 0.1555,0.1176 0.0559,0.0299 0.1139,0.0527 0.1735,0.0687 0.0596,0.016 0.1193,0.0266 0.1784,0.0325 0.0596,0.0058 0.116,0.0085 0.1698,0.008 0.0506,0.0005 0.1054,-0.0022 0.1629,-0.0075 0.058,-0.0048 0.1171,-0.0143 0.1767,-0.0287 0.0597,-0.0139 0.1172,-0.0341 0.1725,-0.0607 0.0554,-0.0266 0.1065,-0.0618 0.1523,-0.1044 0.0378,-0.0351 0.0713,-0.0771 0.1011,-0.1267 0.0298,-0.0489 0.0533,-0.1048 0.0703,-0.1671 0.0176,-0.0628 0.0261,-0.132 0.0266,-0.2076 0.0006,-0.0448 -0.0042,-0.0905 -0.0133,-0.1369 -0.0096,-0.0468 -0.025,-0.0921 -0.0479,-0.1373 -0.0224,-0.0447 -0.0527,-0.0879 -0.0921,-0.1283 -0.0213,-0.0229 -0.0474,-0.0447 -0.0777,-0.066 -0.0309,-0.0213 -0.0666,-0.04 -0.107,-0.0554 -0.041,-0.0154 -0.0868,-0.0261 -0.1379,-0.0319l0 -0.0064c0.049,-0.0112 0.091,-0.0261 0.1267,-0.0447 0.0357,-0.0192 0.0644,-0.0373 0.0862,-0.0554 0.0219,-0.0176 0.0373,-0.0314 0.0458,-0.0405 0.0346,-0.0378 0.0612,-0.0772 0.0793,-0.1182 0.0181,-0.0409 0.0298,-0.0819 0.0362,-0.1224 0.0064,-0.0405 0.0096,-0.0783 0.0091,-0.1139 0.0005,-0.0421 -0.0032,-0.0868 -0.0117,-0.1347 -0.0085,-0.0485 -0.025,-0.0969 -0.0495,-0.1459 -0.0251,-0.049 -0.0607,-0.0958 -0.1081,-0.1411 -0.0442,-0.0415 -0.0921,-0.0745 -0.1443,-0.0995 -0.0516,-0.025 -0.1049,-0.0442 -0.1597,-0.057 -0.0543,-0.0128 -0.1075,-0.0213 -0.1602,-0.0261 -0.0522,-0.0042 -0.1006,-0.0064 -0.1459,-0.0058 -0.0442,-0.0006 -0.0932,0.0016 -0.1464,0.0058 -0.0532,0.0043 -0.1081,0.0128 -0.165,0.0267 -0.057,0.0133 -0.1124,0.0335 -0.1672,0.0606 -0.0548,0.0267 -0.1065,0.0629 -0.1538,0.1081 -0.0128,0.0117 -0.0288,0.0304 -0.0496,0.0554 -0.0202,0.0245 -0.041,0.0559 -0.0622,0.0937 -0.0213,0.0383 -0.04,0.0825 -0.0554,0.1336 -0.0154,0.0516 -0.0245,0.1091 -0.0277,0.1741l0.2364 0c0.0037,-0.0575 0.0149,-0.1091 0.033,-0.1549 0.0181,-0.0463 0.0399,-0.0857 0.066,-0.1193 0.0261,-0.0335 0.0527,-0.0601 0.0799,-0.0804 0.0356,-0.0266 0.0755,-0.0473 0.1208,-0.0623 0.0447,-0.0149 0.091,-0.025 0.1395,-0.0314 0.0484,-0.0058 0.0958,-0.009 0.1421,-0.0085 0.0336,-0.0005 0.0719,0.0016 0.115,0.0064 0.0426,0.0043 0.0868,0.0133 0.1326,0.0266 0.0452,0.0133 0.0883,0.033 0.1293,0.0596 0.0591,0.04 0.1028,0.0879 0.1305,0.1443 0.0282,0.0559 0.0426,0.1209 0.042,0.1943 -0.0005,0.049 -0.0058,0.0916 -0.017,0.1278 -0.0107,0.0357 -0.0245,0.0665 -0.0415,0.0916 -0.0171,0.0255 -0.0346,0.0458 -0.0533,0.0617 -0.0293,0.0256 -0.0623,0.0453 -0.0985,0.0596 -0.0367,0.0144 -0.0729,0.0251 -0.1096,0.0315 -0.0362,0.0063 -0.0687,0.0106 -0.098,0.0122 -0.0287,0.0016 -0.05,0.0021 -0.0644,0.0021l-0.2651 0 0 0.2013 0.2875 0c0.0143,0 0.0346,0.0005 0.0622,0.0016 0.0272,0.001 0.0581,0.0042 0.0927,0.0085 0.0346,0.0048 0.0692,0.0122 0.1049,0.0223 0.0351,0.0096 0.0681,0.0235 0.0979,0.041 0.0197,0.0112 0.0405,0.0267 0.0623,0.0463 0.0218,0.0197 0.0426,0.0448 0.0623,0.0751 0.0197,0.0304 0.0357,0.0666 0.0479,0.1086 0.0122,0.0421 0.0186,0.091 0.0192,0.1469 -0.0006,0.0543 -0.007,0.1028 -0.0192,0.1454 -0.0122,0.0426 -0.0288,0.0804 -0.049,0.1128 -0.0202,0.0325 -0.042,0.0602 -0.066,0.0836 -0.0463,0.0453 -0.0958,0.0794 -0.1496,0.1017 -0.0538,0.0224 -0.1086,0.0373 -0.165,0.0447 -0.0559,0.0075 -0.1108,0.0107 -0.1645,0.0101 -0.0485,0.0006 -0.1006,-0.0021 -0.1571,-0.0085 -0.0564,-0.0058 -0.1128,-0.0197 -0.1693,-0.0404 -0.0564,-0.0213 -0.1096,-0.0538 -0.1591,-0.098 -0.0474,-0.0436 -0.0863,-0.0979 -0.1172,-0.1629 -0.0308,-0.0649 -0.0479,-0.1384 -0.0521,-0.2204l-0.2364 0z"/>
   <polygon id="_670959281234567891011121314151617_18" class="fil1" points="41.9564,31.5382 41.9564,30.5129 41.7201,30.5129 41.7201,32.7488 41.9564,32.7488 41.9564,31.5797 43.068,32.7488 43.3874,32.7488 42.2152,31.551 43.3236,30.5129 43.0265,30.5129 "/>
   <polygon id="_67095928123456789101112131415161718_19" class="fil1" points="43.9176,32.4102 43.9176,30.5129 43.6813,30.5129 43.6813,32.7488 43.924,32.7488 45.1921,30.8419 45.1921,32.7488 45.4285,32.7488 45.4285,30.5129 45.1857,30.5129 "/>
   <polygon id="_6709592812345678910111213141516171819_20" class="fil1" points="13.8299,38.7812 13.8299,36.8839 13.5936,36.8839 13.5936,39.1198 13.8363,39.1198 15.1044,37.2129 15.1044,39.1198 15.3408,39.1198 15.3408,36.8839 15.098,36.8839 "/>
   <path id="_670959281234567891011121314151617181920_21" class="fil1" d="M15.804 38.4554c0.0032,0.0666 0.0138,0.1304 0.0319,0.1917 0.0176,0.0617 0.0416,0.1192 0.0714,0.1724 0.0298,0.0527 0.0649,0.0996 0.1043,0.1406 0.0474,0.0484 0.099,0.0878 0.1555,0.1176 0.0559,0.0299 0.1139,0.0527 0.1735,0.0687 0.0596,0.016 0.1193,0.0266 0.1784,0.0325 0.0596,0.0058 0.116,0.0085 0.1698,0.008 0.0506,0.0005 0.1054,-0.0022 0.1629,-0.0075 0.058,-0.0048 0.1171,-0.0143 0.1767,-0.0287 0.0597,-0.0139 0.1172,-0.0341 0.1725,-0.0607 0.0554,-0.0266 0.1065,-0.0618 0.1523,-0.1044 0.0378,-0.0351 0.0713,-0.0771 0.1011,-0.1267 0.0298,-0.0489 0.0533,-0.1048 0.0703,-0.1671 0.0176,-0.0628 0.0261,-0.132 0.0266,-0.2076 0.0006,-0.0448 -0.0042,-0.0905 -0.0133,-0.1369 -0.0096,-0.0468 -0.025,-0.0921 -0.0479,-0.1373 -0.0224,-0.0447 -0.0527,-0.0879 -0.0921,-0.1283 -0.0213,-0.0229 -0.0474,-0.0447 -0.0777,-0.066 -0.0309,-0.0213 -0.0666,-0.04 -0.107,-0.0554 -0.041,-0.0154 -0.0868,-0.0261 -0.1379,-0.0319l0 -0.0064c0.049,-0.0112 0.091,-0.0261 0.1267,-0.0447 0.0357,-0.0192 0.0644,-0.0373 0.0862,-0.0554 0.0219,-0.0176 0.0373,-0.0314 0.0458,-0.0405 0.0346,-0.0378 0.0612,-0.0772 0.0793,-0.1182 0.0181,-0.0409 0.0298,-0.0819 0.0362,-0.1224 0.0064,-0.0405 0.0096,-0.0783 0.0091,-0.1139 0.0005,-0.0421 -0.0032,-0.0868 -0.0117,-0.1347 -0.0085,-0.0485 -0.025,-0.0969 -0.0495,-0.1459 -0.0251,-0.049 -0.0607,-0.0958 -0.1081,-0.1411 -0.0442,-0.0415 -0.0921,-0.0745 -0.1443,-0.0995 -0.0516,-0.025 -0.1049,-0.0442 -0.1597,-0.057 -0.0543,-0.0128 -0.1075,-0.0213 -0.1602,-0.0261 -0.0522,-0.0042 -0.1006,-0.0064 -0.1459,-0.0058 -0.0442,-0.0006 -0.0932,0.0016 -0.1464,0.0058 -0.0532,0.0043 -0.1081,0.0128 -0.165,0.0267 -0.057,0.0133 -0.1124,0.0335 -0.1672,0.0606 -0.0548,0.0267 -0.1065,0.0629 -0.1538,0.1081 -0.0128,0.0117 -0.0288,0.0304 -0.0496,0.0554 -0.0202,0.0245 -0.041,0.0559 -0.0622,0.0937 -0.0213,0.0383 -0.04,0.0825 -0.0554,0.1336 -0.0154,0.0516 -0.0245,0.1091 -0.0277,0.1741l0.2364 0c0.0037,-0.0575 0.0149,-0.1091 0.033,-0.1549 0.0181,-0.0463 0.0399,-0.0857 0.066,-0.1193 0.0261,-0.0335 0.0527,-0.0601 0.0799,-0.0804 0.0356,-0.0266 0.0755,-0.0473 0.1208,-0.0623 0.0447,-0.0149 0.091,-0.025 0.1395,-0.0314 0.0484,-0.0058 0.0958,-0.009 0.1421,-0.0085 0.0336,-0.0005 0.0719,0.0016 0.115,0.0064 0.0426,0.0043 0.0868,0.0133 0.1326,0.0266 0.0452,0.0133 0.0883,0.033 0.1293,0.0596 0.0591,0.04 0.1028,0.0879 0.1305,0.1443 0.0282,0.0559 0.0426,0.1209 0.042,0.1943 -0.0005,0.049 -0.0058,0.0916 -0.017,0.1278 -0.0107,0.0357 -0.0245,0.0665 -0.0415,0.0916 -0.0171,0.0255 -0.0346,0.0458 -0.0533,0.0617 -0.0293,0.0256 -0.0623,0.0453 -0.0985,0.0596 -0.0367,0.0144 -0.0729,0.0251 -0.1096,0.0315 -0.0362,0.0063 -0.0687,0.0106 -0.098,0.0122 -0.0287,0.0016 -0.05,0.0021 -0.0644,0.0021l-0.2651 0 0 0.2013 0.2875 0c0.0143,0 0.0346,0.0005 0.0622,0.0016 0.0272,0.001 0.0581,0.0042 0.0927,0.0085 0.0346,0.0048 0.0692,0.0122 0.1049,0.0223 0.0351,0.0096 0.0681,0.0235 0.0979,0.041 0.0197,0.0112 0.0405,0.0267 0.0623,0.0463 0.0218,0.0197 0.0426,0.0448 0.0623,0.0751 0.0197,0.0304 0.0357,0.0666 0.0479,0.1086 0.0122,0.0421 0.0186,0.091 0.0192,0.1469 -0.0006,0.0543 -0.007,0.1028 -0.0192,0.1454 -0.0122,0.0426 -0.0288,0.0804 -0.049,0.1128 -0.0202,0.0325 -0.042,0.0602 -0.066,0.0836 -0.0463,0.0453 -0.0958,0.0794 -0.1496,0.1017 -0.0538,0.0224 -0.1086,0.0373 -0.165,0.0447 -0.0559,0.0075 -0.1108,0.0107 -0.1645,0.0101 -0.0485,0.0006 -0.1006,-0.0021 -0.1571,-0.0085 -0.0564,-0.0058 -0.1128,-0.0197 -0.1693,-0.0404 -0.0564,-0.0213 -0.1096,-0.0538 -0.1591,-0.098 -0.0474,-0.0436 -0.0863,-0.0979 -0.1172,-0.1629 -0.0308,-0.0649 -0.0479,-0.1384 -0.0521,-0.2204l-0.2364 0z"/>
   <path id="_67095928123456789101112131415161718192021_22" class="fil1" d="M17.9728 38.0018c0.0005,0.1166 0.0096,0.2226 0.0277,0.3184 0.0176,0.0958 0.0421,0.1821 0.0724,0.2582 0.0309,0.0761 0.065,0.1432 0.1033,0.2007 0.0383,0.0575 0.0782,0.1059 0.1192,0.1459 0.0708,0.0686 0.1459,0.1219 0.2258,0.1602 0.0793,0.0383 0.1613,0.0649 0.2448,0.0799 0.0842,0.0149 0.1677,0.0223 0.2513,0.0218 0.0772,0.0005 0.1581,-0.0059 0.2422,-0.0192 0.0842,-0.0138 0.1677,-0.0388 0.2503,-0.0756 0.083,-0.0367 0.1618,-0.0889 0.2358,-0.1576 0.0623,-0.0575 0.1182,-0.1293 0.1677,-0.2156 0.0495,-0.0862 0.0884,-0.1879 0.1171,-0.3045 0.0288,-0.1166 0.0437,-0.2486 0.0442,-0.3966 -0.0005,-0.1411 -0.0144,-0.271 -0.041,-0.3897 -0.0271,-0.1192 -0.0655,-0.2252 -0.1145,-0.3183 -0.0495,-0.0932 -0.107,-0.1715 -0.1735,-0.2343 -0.0532,-0.0516 -0.1161,-0.0963 -0.189,-0.1352 -0.0724,-0.0389 -0.1538,-0.0687 -0.2438,-0.0905 -0.0905,-0.0218 -0.189,-0.0325 -0.2955,-0.033 -0.1182,0.001 -0.2225,0.0144 -0.3141,0.0404 -0.0915,0.0261 -0.1703,0.0597 -0.2374,0.1001 -0.0671,0.0405 -0.1225,0.0831 -0.1672,0.1278 -0.0601,0.0586 -0.115,0.1304 -0.1639,0.2172 -0.049,0.0862 -0.0879,0.1874 -0.1172,0.3034 -0.0292,0.1161 -0.0442,0.2481 -0.0447,0.3961zm0.2492 -0.0287c-0.0006,-0.0479 0.0026,-0.1038 0.0101,-0.1677 0.0069,-0.0644 0.0202,-0.132 0.0399,-0.2028 0.0202,-0.0714 0.049,-0.1411 0.0873,-0.2098 0.0383,-0.0692 0.0884,-0.132 0.1501,-0.1895 0.0703,-0.0639 0.148,-0.1108 0.2332,-0.1406 0.0852,-0.0303 0.1789,-0.0452 0.2811,-0.0447 0.0559,-0.0005 0.1134,0.0037 0.1736,0.0139 0.0596,0.0095 0.1192,0.0276 0.1783,0.0543 0.0591,0.0266 0.115,0.0644 0.1688,0.1139 0.0143,0.0128 0.0335,0.0319 0.0564,0.0585 0.0229,0.0267 0.0474,0.0607 0.0729,0.1023 0.0256,0.042 0.0501,0.0921 0.073,0.1506 0.0229,0.0586 0.042,0.1267 0.0564,0.2039 0.0144,0.0767 0.0218,0.164 0.0224,0.2609 0.0005,0.0591 -0.0027,0.1235 -0.0096,0.1938 -0.0064,0.0697 -0.0187,0.1416 -0.0373,0.2145 -0.0181,0.0735 -0.0442,0.1437 -0.0783,0.2119 -0.0346,0.0681 -0.0787,0.1299 -0.1336,0.1847 -0.034,0.0346 -0.0756,0.0676 -0.1256,0.0985 -0.0501,0.0309 -0.1086,0.0559 -0.1768,0.0756 -0.0681,0.0197 -0.1458,0.0298 -0.2342,0.0303 -0.1182,0 -0.2241,-0.0181 -0.3184,-0.0548 -0.0942,-0.0362 -0.1767,-0.0905 -0.247,-0.1624 -0.0394,-0.0378 -0.0772,-0.0894 -0.1139,-0.1559 -0.0367,-0.0661 -0.0676,-0.1512 -0.0916,-0.2556 -0.0239,-0.1043 -0.0362,-0.2321 -0.0372,-0.3838z"/>
   <path id="_6709592812345678910111213141516171819202122_23" class="fil1" d="M20.8156 37.0851l1.3065 0 0 -0.2012 -1.5428 0 0 2.2359 0.9486 0c0.0373,0 0.0788,-0.0011 0.1251,-0.0048 0.0458,-0.0037 0.0937,-0.0106 0.1438,-0.0218 0.0495,-0.0107 0.0985,-0.0272 0.1469,-0.049 0.0479,-0.0218 0.0927,-0.0511 0.1336,-0.0873 0.0357,-0.0319 0.0677,-0.0724 0.0964,-0.1198 0.0293,-0.0479 0.0522,-0.1022 0.0692,-0.1629 0.017,-0.0601 0.0256,-0.1262 0.0261,-0.1964 -0.0005,-0.0692 -0.008,-0.1337 -0.024,-0.1933 -0.0154,-0.0591 -0.0367,-0.1123 -0.0638,-0.1602 -0.0272,-0.0474 -0.0586,-0.0884 -0.0943,-0.1225 -0.0527,-0.0505 -0.108,-0.0878 -0.1671,-0.1128 -0.0586,-0.0251 -0.1166,-0.041 -0.1747,-0.049 -0.058,-0.008 -0.1123,-0.0112 -0.1629,-0.0107l-0.7666 0 0 -0.7442zm0 0.9423l0.674 0c0.0234,-0.0005 0.0522,0.0005 0.0857,0.0032 0.033,0.0026 0.0687,0.008 0.107,0.0159 0.0378,0.008 0.0756,0.0208 0.1129,0.0373 0.0373,0.0171 0.0719,0.0394 0.1033,0.0682 0.0239,0.0213 0.0452,0.0473 0.0644,0.0787 0.0192,0.0315 0.0346,0.0682 0.0458,0.1102 0.0117,0.0426 0.0175,0.09 0.0175,0.1433 0.0011,0.0564 -0.0079,0.1118 -0.026,0.1661 -0.0187,0.0543 -0.0512,0.1032 -0.0985,0.1469 -0.0394,0.0357 -0.0826,0.0623 -0.1278,0.0798 -0.0458,0.0176 -0.0926,0.0288 -0.14,0.0341 -0.0479,0.0053 -0.0948,0.008 -0.1411,0.0075l-0.6772 0 0 -0.8912z"/>
   <path id="_670959281234567891011121314151617181920212223_24" class="fil1" d="M22.7098 36.8839l0 2.2359 0.2363 0 0 -0.9327 0.6261 0c0.0335,0.0005 0.0729,-0.0011 0.1193,-0.0037 0.0457,-0.0027 0.0947,-0.0096 0.1469,-0.0208 0.0527,-0.0106 0.1043,-0.0282 0.1565,-0.0522 0.0522,-0.0239 0.1006,-0.0569 0.1459,-0.099 0.0266,-0.0245 0.0537,-0.0575 0.0814,-0.1001 0.0277,-0.0431 0.0511,-0.0958 0.0703,-0.1597 0.0197,-0.0633 0.0293,-0.1384 0.0303,-0.2257 -0.0005,-0.0884 -0.0111,-0.1645 -0.0314,-0.2284 -0.0202,-0.0644 -0.0458,-0.1182 -0.0766,-0.1618 -0.0304,-0.0437 -0.0613,-0.0788 -0.0932,-0.1049 -0.0426,-0.0362 -0.0873,-0.065 -0.1336,-0.0852 -0.0469,-0.0202 -0.0937,-0.0346 -0.1416,-0.0436 -0.0474,-0.0086 -0.0937,-0.0139 -0.1395,-0.016 -0.0453,-0.0016 -0.0879,-0.0027 -0.1283,-0.0021l-0.8688 0zm0.2363 0.2012l0.5846 0c0.0463,-0.0005 0.0931,0.0011 0.1411,0.0053 0.0479,0.0037 0.0936,0.0117 0.1373,0.0245 0.0442,0.0123 0.0831,0.0309 0.1177,0.0564 0.0271,0.0203 0.0521,0.0474 0.075,0.0815 0.0234,0.0341 0.0421,0.0745 0.0565,0.1214 0.0143,0.0468 0.0212,0.0995 0.0218,0.1581 -0.0006,0.0607 -0.0075,0.1134 -0.0208,0.1592 -0.0138,0.0457 -0.0319,0.0846 -0.0538,0.1171 -0.0223,0.0319 -0.0463,0.058 -0.0724,0.0782 -0.0378,0.0293 -0.0803,0.0511 -0.1272,0.0655 -0.0463,0.0144 -0.0937,0.0234 -0.1416,0.0277 -0.0479,0.0043 -0.0926,0.0064 -0.1336,0.0059l-0.5846 0 0 -0.9008z"/>
   <path id="_67095928123456789101112131415161718192021222324_25" class="fil1" d="M24.9553 38.4778l0.9742 0 0.2364 0.642 0.2587 0 -0.8496 -2.2359 -0.2652 0 -0.8496 2.2359 0.2555 0 0.2396 -0.642zm0.0671 -0.2013l0.4184 -1.1659 0.4184 1.1659 -0.8368 0z"/>
   <polygon id="_6709592812345678910111213141516171819202122232425_26" class="fil1" points="27.7247,39.1198 27.961,39.1198 27.961,37.9795 28.964,39.1198 29.2515,39.1198 28.1942,37.922 29.2195,36.8839 28.9385,36.8839 27.961,37.89 27.961,36.8839 27.7247,36.8839 27.7247,37.89 26.7504,36.8839 26.4693,36.8839 27.4947,37.922 26.4342,39.1198 26.7249,39.1198 27.7247,37.9795 "/>
   <polygon id="_670959281234567891011121314151617181920212223242526_27" class="fil1" points="29.7817,37.8613 29.7817,37.0851 31.0882,37.0851 31.0882,36.8839 29.5454,36.8839 29.5454,39.1198 31.1265,39.1198 31.1265,38.9186 29.7817,38.9186 29.7817,38.0625 30.9764,38.0625 30.9764,37.8613 "/>
   <polygon id="_67095928123456789101112131415161718192021222324252627_28" class="fil1" points="31.7334,38.0402 32.9345,38.0402 32.9345,39.1198 33.1708,39.1198 33.1708,36.8839 32.9345,36.8839 32.9345,37.8389 31.7334,37.8389 31.7334,36.8839 31.4971,36.8839 31.4971,39.1198 31.7334,39.1198 "/>
   <polygon id="_6709592812345678910111213141516171819202122232425262728_29" class="fil1" points="33.9949,38.7812 33.9949,36.8839 33.7586,36.8839 33.7586,39.1198 34.0013,39.1198 35.2694,37.2129 35.2694,39.1198 35.5058,39.1198 35.5058,36.8839 35.263,36.8839 "/>
   <path id="_670959281234567891011121314151617181920212223242526272829_30" class="fil1" d="M37.4639 38.1999l0 0.9199 0.2363 0 0 -2.2359 -0.9071 0c-0.0623,-0.0011 -0.1278,0.0026 -0.1954,0.0111 -0.0681,0.008 -0.1357,0.0256 -0.2023,0.0522 -0.0665,0.0266 -0.1288,0.0671 -0.1868,0.1219 -0.0325,0.0309 -0.0618,0.0682 -0.0889,0.1124 -0.0272,0.0447 -0.0485,0.0963 -0.065,0.1559 -0.016,0.0597 -0.0245,0.1278 -0.025,0.2045 0.0005,0.0724 0.0085,0.1378 0.0239,0.1959 0.016,0.058 0.0368,0.1091 0.0629,0.1533 0.0255,0.0442 0.0543,0.0809 0.0857,0.1107 0.0335,0.032 0.0729,0.0607 0.1187,0.0852 0.0452,0.025 0.0942,0.0453 0.1459,0.0607 0.0521,0.0154 0.1043,0.0256 0.157,0.0298l-0.5941 0.9423 0.2843 0 0.5558 -0.9199 0.5941 0zm0 -1.1148l0 0.9135 -0.6293 0c-0.0804,-0.0005 -0.1501,-0.0069 -0.2092,-0.0191 -0.0586,-0.0128 -0.1081,-0.0298 -0.148,-0.0511 -0.0399,-0.0208 -0.0719,-0.0442 -0.0964,-0.0703 -0.034,-0.0373 -0.0601,-0.0841 -0.0793,-0.1395 -0.0191,-0.0554 -0.0287,-0.1155 -0.0293,-0.1799 0,-0.0432 0.0054,-0.0852 0.0155,-0.1262 0.0101,-0.041 0.025,-0.0788 0.0447,-0.1145 0.0192,-0.0351 0.0431,-0.066 0.0708,-0.0915 0.0405,-0.0368 0.0847,-0.0639 0.1331,-0.0815 0.0484,-0.017 0.0964,-0.0282 0.1427,-0.0335 0.0463,-0.0048 0.0862,-0.0069 0.1203,-0.0064l0.6644 0z"/>
   <circle id="_65382584_31" class="fil2 str0" cx="25.4999" cy="25.4999" r="25"/>
  </g>
 </g>
</svg>
